HIERARCHY
ROOT Hips
{
 OFFSET 0.000000 0.000000 0.000000
 CHANNELS 6 Xposition Yposition Zposition Yrotation Xrotation Zrotation
 JOINT Chest
 {
  OFFSET 0.000000 14.374500 -0.011500
  CHANNELS 3 Yrotation Xrotation Zrotation
  JOINT Chest2
  {
   OFFSET 0.000000 9.203400 0.023400
   CHANNELS 3 Yrotation Xrotation Zrotation
   JOINT Chest3
   {
    OFFSET 0.000000 9.162700 0.000000
    CHANNELS 3 Yrotation Xrotation Zrotation
    JOINT Chest4
    {
     OFFSET 0.000000 9.153300 0.000000
     CHANNELS 3 Yrotation Xrotation Zrotation
     JOINT Neck
     {
      OFFSET 0.000000 13.353600 0.000000
      CHANNELS 3 Yrotation Xrotation Zrotation
      JOINT Head
      {
       OFFSET 0.000000 8.573800 0.049400
       CHANNELS 3 Yrotation Xrotation Zrotation
       End Site
       {
        OFFSET 0.000000 16.219200 0.026100
       }
      }
     }
     JOINT RightCollar
     {
      OFFSET -2.497100 8.876100 0.000000
      CHANNELS 3 Yrotation Xrotation Zrotation
      JOINT RightShoulder
      {
       OFFSET -12.289200 0.000000 0.000000
       CHANNELS 3 Yrotation Xrotation Zrotation
       JOINT RightElbow
       {
        OFFSET 0.000000 -28.194900 0.000000
        CHANNELS 3 Yrotation Xrotation Zrotation
        JOINT RightWrist
        {
         OFFSET 0.000000 -23.009700 0.007900
         CHANNELS 3 Yrotation Xrotation Zrotation
         End Site
         {
          OFFSET 0.000000 -17.151500 0.000000
         }
        }
       }
      }
     }
     JOINT LeftCollar
     {
      OFFSET 2.497100 8.876100 0.000000
      CHANNELS 3 Yrotation Xrotation Zrotation
      JOINT LeftShoulder
      {
       OFFSET 12.289200 0.000000 0.000000
       CHANNELS 3 Yrotation Xrotation Zrotation
       JOINT LeftElbow
       {
        OFFSET 0.000000 -28.194900 0.000000
        CHANNELS 3 Yrotation Xrotation Zrotation
        JOINT LeftWrist
        {
         OFFSET 0.000000 -23.009700 0.007900
         CHANNELS 3 Yrotation Xrotation Zrotation
         End Site
         {
          OFFSET 0.000000 -17.151500 0.000000
         }
        }
       }
      }
     }
    }
   }
  }
 }
 JOINT RightHip
 {
  OFFSET -11.777600 0.056700 0.005700
  CHANNELS 3 Yrotation Xrotation Zrotation
  JOINT RightKnee
  {
   OFFSET 0.000000 -39.966000 -0.004200
   CHANNELS 3 Yrotation Xrotation Zrotation
   JOINT RightAnkle
   {
    OFFSET 0.000000 -41.981900 0.027400
    CHANNELS 3 Yrotation Xrotation Zrotation
    JOINT RightToe
    {
     OFFSET 0.000000 -9.910600 16.950100
     CHANNELS 3 Yrotation Xrotation Zrotation
     End Site
     {
      OFFSET 0.000000 -1.461000 6.191600
     }
    }
   }
  }
 }
 JOINT LeftHip
 {
  OFFSET 11.777600 0.056700 0.005700
  CHANNELS 3 Yrotation Xrotation Zrotation
  JOINT LeftKnee
  {
   OFFSET 0.000000 -39.966000 -0.004200
   CHANNELS 3 Yrotation Xrotation Zrotation
   JOINT LeftAnkle
   {
    OFFSET 0.000000 -41.981900 0.027400
    CHANNELS 3 Yrotation Xrotation Zrotation
    JOINT LeftToe
    {
     OFFSET 0.000000 -9.910600 16.950100
     CHANNELS 3 Yrotation Xrotation Zrotation
     End Site
     {
      OFFSET 0.000000 -1.461000 6.191600
     }
    }
   }
  }
 }
}
MOTION
Frames: 8
Frame Time: 0.008333
-4.125084 130.432906 80.347012 175.119996 -46.211660 -3.121237 4.546811 24.404746 3.786304 0.620551 3.850381 0.456902 0.939544 6.186468 0.749699 3.642356 20.257096 2.963005 1.880477 13.372494 -0.916381 2.187982 -11.635000 -1.374998 -0.235323 -5.762836 0.632164 1.485391 -20.260960 -13.136816 -166.626469 -45.152429 -173.727007 16.273538 -14.303803 -40.412077 -7.741851 -7.762914 0.666441 -4.527929 -12.184725 6.123762 160.269141 -65.479199 176.677850 -13.331393 -30.186634 38.415525 7.432878 -31.692755 2.416358 -78.750726 83.812876 -82.457508 1.160651 -25.197559 9.778652 -0.003937 -0.003367 -0.002302 -0.961985 -27.349228 -3.008775 145.645726 71.391460 156.859042 -0.301535 -4.014703 -8.690139 0.004595 -0.000301 0.002687
-4.124897 130.432368 80.348378 175.119959 -46.209258 -3.116826 4.611777 24.380027 3.813260 0.600805 3.851700 0.456346 0.941611 6.187162 0.749185 3.634160 20.259034 2.969890 1.967255 13.413730 -0.898448 2.201150 -11.584822 -1.354206 -0.120612 -5.810049 0.665224 1.873999 -20.232041 -13.269331 -166.591617 -45.371354 -173.721411 16.317109 -14.346525 -40.381245 -7.741607 -7.758137 0.660847 -4.712715 -12.258111 6.071388 160.207924 -65.962573 176.515690 -13.340245 -30.111267 38.144955 7.436378 -31.694263 2.414526 -78.780062 83.810785 -82.488782 1.166424 -25.206493 9.772156 -0.003196 -0.002334 -0.001869 -0.959392 -27.352668 -3.011306 145.627628 71.384856 156.831770 -0.308367 -4.017404 -8.678459 -0.000063 0.001419 -0.000037
-4.124842 130.431627 80.350584 175.128387 -46.207655 -3.119224 4.632453 24.362231 3.823433 0.589750 3.858661 0.455720 0.996173 6.150088 0.752264 3.667369 20.239483 2.982519 1.962821 13.504839 -0.857453 2.241777 -11.519779 -1.338385 -0.092717 -5.789067 0.718320 2.272564 -20.185086 -13.388299 -166.555646 -45.621982 -173.709234 16.370160 -14.370487 -40.352534 -7.817722 -7.708715 0.663683 -4.862859 -12.287366 6.015999 160.180668 -66.449155 176.313095 -13.364577 -30.056227 37.871332 7.432224 -31.692606 2.416082 -78.789330 83.806783 -82.501039 1.167695 -25.213898 9.770415 -0.002283 -0.000146 -0.001335 -0.960745 -27.357819 -3.012266 145.613214 71.378928 156.813812 -0.318136 -4.018435 -8.674931 -0.001240 0.002058 -0.000725
-4.125974 130.431721 80.352445 175.142921 -46.213483 -3.122207 4.632441 24.359598 3.822082 0.593085 3.858925 0.456815 1.006761 6.130707 0.751703 3.679832 20.231056 2.986436 2.008125 13.575874 -0.830900 2.283455 -11.446388 -1.321175 -0.047187 -5.766406 0.752989 2.691482 -20.126290 -13.487028 -166.529011 -45.898298 -173.682103 16.431242 -14.370077 -40.320837 -7.819734 -7.683970 0.642670 -5.006326 -12.280019 5.960599 160.230419 -66.951559 176.038682 -13.395980 -30.049183 37.597780 7.428594 -31.680414 2.416793 -78.797798 83.800406 -82.514839 1.161865 -25.222729 9.774942 -0.002025 0.002119 -0.001184 -0.960180 -27.352997 -3.018671 145.609458 71.380694 156.811609 -0.329279 -4.017238 -8.671997 0.000238 0.003956 0.000139
-4.127556 130.432392 80.354359 175.148807 -46.225701 -3.118325 4.636278 24.361398 3.818761 0.605555 3.845032 0.456950 1.003188 6.125215 0.753414 3.688736 20.223190 2.989443 2.054353 13.651523 -0.803668 2.326011 -11.368095 -1.303476 -0.008523 -5.723687 0.788308 3.096112 -20.045675 -13.572822 -166.511353 -46.194161 -173.638045 16.504926 -14.350196 -40.271294 -7.836820 -7.641344 0.641387 -5.104664 -12.258205 5.874795 160.377739 -67.480444 175.673476 -13.445757 -30.107901 37.346753 7.433699 -31.665285 2.414420 -78.840718 83.806960 -82.560579 1.146631 -25.232892 9.774229 -0.003554 0.001677 -0.002078 -0.952302 -27.340807 -3.026539 145.606102 71.385027 156.809432 -0.338362 -4.013885 -8.668009 0.001900 0.004966 0.001111
-4.128813 130.434608 80.355447 175.161418 -46.249118 -3.121610 4.654070 24.339464 3.828351 0.607304 3.839323 0.457423 0.981405 6.160439 0.753477 3.701416 20.203625 2.990377 2.099217 13.728987 -0.776105 2.367140 -11.287899 -1.285045 0.021570 -5.665608 0.827256 3.483989 -19.945701 -13.644534 -166.505043 -46.509425 -173.573604 16.585678 -14.323767 -40.195021 -7.847728 -7.588673 0.643041 -5.187930 -12.223355 5.773670 160.632382 -68.038919 175.203634 -13.533625 -30.221795 37.154913 7.436005 -31.639611 2.415024 -78.847074 83.808495 -82.567742 1.150741 -25.231855 9.765284 -0.001981 -0.000033 -0.001158 -0.953791 -27.316834 -3.033084 145.603482 71.387881 156.806670 -0.348777 -4.012789 -8.666491 0.002142 0.005078 0.001252
-4.129347 130.435375 80.358590 175.170182 -46.267400 -3.127042 4.662485 24.334830 3.834385 0.607930 3.838030 0.457826 0.974227 6.170024 0.753919 3.713627 20.188871 2.992256 2.140022 13.807765 -0.748223 2.403947 -11.206358 -1.265344 0.041869 -5.594842 0.870116 3.849163 -19.829806 -13.699235 -166.499200 -46.842231 -173.494422 16.664805 -14.298179 -40.083231 -7.854507 -7.523254 0.651668 -5.260468 -12.186205 5.660013 161.008682 -68.626317 174.616978 -13.659359 -30.364192 37.041133 7.440331 -31.621640 2.420983 -78.846894 83.804530 -82.565395 1.146354 -25.226969 9.767224 -0.002227 -0.001468 -0.001302 -0.955958 -27.299561 -3.033812 145.601244 71.389713 156.802899 -0.352589 -4.010341 -8.663076 0.003113 0.007564 0.001821
-4.130254 130.434905 80.363332 175.177236 -46.281628 -3.131589 4.669988 24.327559 3.837657 0.608598 3.837749 0.458316 0.991302 6.144377 0.754980 3.696096 20.222218 3.000489 2.159267 13.847449 -0.734179 2.459644 -11.090940 -1.239030 0.063269 -5.519575 0.912583 4.183746 -19.699892 -13.737549 -166.461451 -47.180194 -173.421608 16.744207 -14.262964 -39.921150 -7.856733 -7.487084 0.658340 -5.316331 -12.118579 5.547212 161.511455 -69.237642 173.908603 -13.804696 -30.514942 36.989671 7.444728 -31.608494 2.428254 -78.834562 83.800980 -82.551985 1.136857 -25.221712 9.772377 -0.001952 -0.001920 -0.001141 -0.953561 -27.291694 -3.036383 145.601017 71.390640 156.800945 -0.351055 -4.001072 -8.656056 0.002067 0.008407 0.001209
